<svg xmlns="http://www.w3.org/2000/svg" viewBox="0 0 512 512">
  <defs>
    <linearGradient id="sea" x1="0" y1="0" x2="0" y2="1">
      <stop offset="0" stop-color="#129bbd"/>
      <stop offset="1" stop-color="#06465a"/>
    </linearGradient>
  </defs>
  <rect width="512" height="512" rx="112" fill="url(#sea)"/>
  <circle cx="352" cy="150" r="46" fill="#ffe8a3"/>
  <g fill="none" stroke="#ffffff" stroke-width="30" stroke-linecap="round">
    <path d="M70 300c30 0 30 34 60 34s30-34 60-34 30 34 60 34 30-34 60-34 30 34 60 34 30-34 60-34" opacity=".55"/>
    <path d="M70 372c30 0 30 34 60 34s30-34 60-34 30 34 60 34 30-34 60-34 30 34 60 34 30-34 60-34"/>
  </g>
</svg>
